<?xml version="1.0" encoding="utf-8"?>
<!-- Generator: Adobe Illustrator 18.1.0, SVG Export Plug-In . SVG Version: 6.00 Build 0)  -->
<svg version="1.1" xmlns="http://www.w3.org/2000/svg" xmlns:xlink="http://www.w3.org/1999/xlink" x="0px" y="0px"
	 viewBox="0 0 219 56" style="enable-background:new 0 0 219 56;" xml:space="preserve">
<style type="text/css">
	.st0{display:none;}
	.st1{display:inline;fill:#333333;}
	.st2{fill:#FFFFFF;}
</style>
<g id="Layer_2" class="st0">
	<rect class="st1" width="219" height="56"/>
</g>
<g id="Layer_3">
</g>
<g id="bradul">
	<polygon id="tulpina" class="st2" points="109,0 107,28 107,56 109,56 111,56 111,28 	"/>
	<polygon class="st2" points="118.8,32 122.6,32 114.5,18 117.4,18 111.6,8 113.6,8 109,0 104.4,8 106.4,8 100.6,18 103.5,18 
		95.4,32 99.2,32 91,45 109,45 127,45 	"/>
	<polygon class="st2" points="109.5,54 11,54 11,56 109.5,56 208,56 208,54 	"/>
	<rect x="5" y="52" class="st2" width="4" height="4"/>
	<rect y="53" class="st2" width="3" height="3"/>
	<rect x="210" y="52" class="st2" width="4" height="4"/>
	<rect x="216" y="53" class="st2" width="3" height="3"/>
</g>
<g id="Layer_4">
</g>
</svg>
