<?xml version="1.0" encoding="utf-8"?>
<!-- Generator: Adobe Illustrator 18.1.0, SVG Export Plug-In . SVG Version: 6.00 Build 0)  -->
<svg version="1.1" xmlns="http://www.w3.org/2000/svg" xmlns:xlink="http://www.w3.org/1999/xlink" x="0px" y="0px"
	 viewBox="0 0 219 56" style="enable-background:new 0 0 219 56;" xml:space="preserve">
<style type="text/css">
	.st0{display:none;}
	.st1{display:inline;fill:#333333;}
	.st2{fill:#FFFFFF;}
</style>
<g id="Layer_2" class="st0">
	<rect class="st1" width="219" height="56"/>
</g>
<g id="Layer_3">
</g>
<g id="bradul">
</g>
<g id="Layer_4">
	<polygon class="st2" points="109.5,0 11,0 11,2 109.5,2 208,2 208,0 	"/>
	<rect x="5" class="st2" width="4" height="4"/>
	<rect class="st2" width="3" height="3"/>
	<rect x="210" class="st2" width="4" height="4"/>
	<rect x="216" class="st2" width="3" height="3"/>
	<rect x="109" y="4" class="st2" width="1" height="43"/>
	<polygon class="st2" points="105,4 105,27 87,27 87,19 86,19 86,27 86,28 87,28 106,28 106,27 106,4 	"/>
	<path class="st2" d="M88,12h-3h-1v5h1h3h1v-5H88z M88,16h-3v-3h3V16z"/>
	<rect x="95" y="30" class="st2" width="1" height="7"/>
	<path class="st2" d="M96,38h-1h-1v1v1v1h1h1h1v-1v-1v-1H96z M96,40h-1v-1h1V40z"/>
	<path class="st2" d="M112,49h-5h-1v1v5v1h1h5h1v-1v-5v-1H112z M112,55h-5v-5h5V55z"/>
	<rect x="60" y="23" class="st2" width="24" height="1"/>
	<path class="st2" d="M57,22h-1h-1v1v1v1h1h1h1v-1v-1v-1H57z M57,24h-1v-1h1V24z"/>
	<polygon class="st2" points="114,4 114,27 132,27 132,19 133,19 133,27 133,28 132,28 113,28 113,27 113,4 	"/>
	<path class="st2" d="M130,12v5h1h3h1v-5h-1h-3H130z M131,13h3v3h-3V13z"/>
	<rect x="123" y="30" class="st2" width="1" height="7"/>
	<path class="st2" d="M122,38v1v1v1h1h1h1v-1v-1v-1h-1h-1H122z M123,39h1v1h-1V39z"/>
	<rect x="135" y="23" class="st2" width="24" height="1"/>
	<path class="st2" d="M161,22v1v1v1h1h1h1v-1v-1v-1h-1h-1H161z M162,23h1v1h-1V23z"/>
</g>
</svg>
