<?xml version="1.0" encoding="utf-8"?>
<!-- Generator: Adobe Illustrator 18.1.0, SVG Export Plug-In . SVG Version: 6.00 Build 0)  -->
<svg version="1.1" id="Layer_1" xmlns="http://www.w3.org/2000/svg" xmlns:xlink="http://www.w3.org/1999/xlink" x="0px" y="0px"
	 viewBox="0 0 32 32" enable-background="new 0 0 32 32" xml:space="preserve">
<g>
	<path fill="#FFFFFF" d="M16,2c7.7,0,14,6.3,14,14s-6.3,14-14,14S2,23.7,2,16S8.3,2,16,2 M16,0C7.2,0,0,7.2,0,16s7.2,16,16,16
		s16-7.2,16-16S24.8,0,16,0L16,0z"/>
</g>
<g>
	<path fill="#444444" d="M17.9,7.6v3.7h2.4v3.2h-2.4v6.8c0,0.3,0,0.5,0.1,0.7s0.1,0.3,0.2,0.5s0.3,0.2,0.5,0.2s0.4,0.1,0.7,0.1
		c0.3,0,0.5,0,0.7,0s0.3,0,0.5-0.1V26c-0.4,0.1-0.8,0.2-1.2,0.3s-0.9,0.1-1.4,0.1c-0.7,0-1.4-0.1-2-0.3c-0.6-0.2-1.1-0.4-1.5-0.8
		s-0.7-0.8-0.9-1.4s-0.3-1.3-0.3-2.1v-7.3h-1.9v-3.2h1.9V7.6H17.9z"/>
</g>
<g>
	<path fill="#FFFFFF" d="M17.9,6.6v3.7h2.4v3.2h-2.4v6.8c0,0.3,0,0.5,0.1,0.7s0.1,0.3,0.2,0.5s0.3,0.2,0.5,0.2s0.4,0.1,0.7,0.1
		c0.3,0,0.5,0,0.7,0s0.3,0,0.5-0.1V25c-0.4,0.1-0.8,0.2-1.2,0.3s-0.9,0.1-1.4,0.1c-0.7,0-1.4-0.1-2-0.3c-0.6-0.2-1.1-0.4-1.5-0.8
		s-0.7-0.8-0.9-1.4s-0.3-1.3-0.3-2.1v-7.3h-1.9v-3.2h1.9V6.6H17.9z"/>
</g>
</svg>
