<?xml version="1.0" encoding="utf-8"?>
<!-- Generator: Adobe Illustrator 18.1.0, SVG Export Plug-In . SVG Version: 6.00 Build 0)  -->
<svg version="1.1" xmlns="http://www.w3.org/2000/svg" xmlns:xlink="http://www.w3.org/1999/xlink" x="0px" y="0px"
	 viewBox="0 0 222 83" enable-background="new 0 0 222 83" xml:space="preserve">
<g id="Layer_1">
</g>
<g id="Layer_3" display="none">
	<rect x="-12" y="-12" display="inline" fill="#CC0000" width="277.3" height="115.3"/>
</g>
<g id="Layer_2">
	<rect x="109" y="64.2" fill="#FFFFFF" width="2" height="13.8"/>
	<polygon fill="#FFFFFF" points="111,65.6 111,3 104,15.1 107.4,15.1 101,25.8 105.8,25.9 94,46.3 99.7,46.3 88.5,65.6 	"/>
	<rect x="15" y="76" fill="#FFFFFF" width="96" height="2"/>
	<circle fill="#FFFFFF" cx="13" cy="77" r="1"/>
	<circle fill="#FFFFFF" cx="9" cy="77" r="2"/>
	<polygon fill="#FFFFFF" points="5.5,79 2,77 5.5,75 	"/>
</g>
<g id="Layer_2_copy">
	<rect x="109" y="64.2" fill="#FFFFFF" width="2" height="13.8"/>
	<polygon fill="#FFFFFF" points="111,65.6 111,3 104,15.1 107.4,15.1 101,25.8 105.8,25.9 94,46.3 99.7,46.3 88.5,65.6 	"/>
	<rect x="15" y="76" fill="#FFFFFF" width="96" height="2"/>
	<circle fill="#FFFFFF" cx="13" cy="77" r="1"/>
	<circle fill="#FFFFFF" cx="9" cy="77" r="2"/>
	<polygon fill="#FFFFFF" points="5.5,79 2,77 5.5,75 	"/>
	<rect x="111" y="64.2" fill="#DDDDDD" width="2" height="13.8"/>
	<polygon fill="#DDDDDD" points="111,65.6 111,3 118,15.2 114.6,15.2 121,25.9 116.2,25.9 128,46.3 122.3,46.3 133.5,65.6 	"/>
	<rect x="111" y="76" fill="#DDDDDD" width="96" height="2"/>
	<circle fill="#DDDDDD" cx="209" cy="77" r="1"/>
	<circle fill="#DDDDDD" cx="213" cy="77" r="2"/>
	<polygon fill="#DDDDDD" points="216.5,79 220,77 216.5,75 	"/>
</g>
</svg>
