<?xml version="1.0" encoding="utf-8"?>
<!-- Generator: Adobe Illustrator 18.1.0, SVG Export Plug-In . SVG Version: 6.00 Build 0)  -->
<svg version="1.1" id="Layer_1" xmlns="http://www.w3.org/2000/svg" xmlns:xlink="http://www.w3.org/1999/xlink" x="0px" y="0px"
	 viewBox="0 0 32 32" enable-background="new 0 0 32 32" xml:space="preserve">
<g>
	<path fill="#FFFFFF" d="M16,2c7.7,0,14,6.3,14,14s-6.3,14-14,14S2,23.7,2,16S8.3,2,16,2 M16,0C7.2,0,0,7.2,0,16s7.2,16,16,16
		s16-7.2,16-16S24.8,0,16,0L16,0z"/>
</g>
<g>
	<path fill="#444444" d="M13.1,27.6V16H11v-3.2h2.1v-1.2c0-0.9,0.1-1.6,0.4-2.3c0.3-0.7,0.6-1.2,1.1-1.7c0.5-0.4,1.1-0.8,1.8-1
		c0.7-0.2,1.5-0.3,2.4-0.3c0.4,0,0.8,0,1.1,0.1s0.7,0.1,1,0.2l0,3.4c-0.2,0-0.3-0.1-0.5-0.1c-0.2,0-0.4,0-0.6,0
		c-0.7,0-1.2,0.1-1.6,0.4c-0.4,0.3-0.5,0.7-0.5,1.3v1.2h2.9V16h-2.9v11.6H13.1z"/>
</g>
<g>
	<path fill="#FFFFFF" d="M13.1,26.6V15H11v-3.2h2.1v-1.2c0-0.9,0.1-1.6,0.4-2.3c0.3-0.7,0.6-1.2,1.1-1.7c0.5-0.4,1.1-0.8,1.8-1
		c0.7-0.2,1.5-0.3,2.4-0.3c0.4,0,0.8,0,1.1,0.1s0.7,0.1,1,0.2L21,9c-0.2,0-0.3-0.1-0.5-0.1c-0.2,0-0.4,0-0.6,0
		c-0.7,0-1.2,0.1-1.6,0.4c-0.4,0.3-0.5,0.7-0.5,1.3v1.2h2.9V15h-2.9v11.6H13.1z"/>
</g>
</svg>
