<?xml version="1.0" encoding="utf-8"?>
<?xml-stylesheet type="text/css" href="styles.css" ?>
<svg version="1.1" id="Layer_1" xmlns="http://www.w3.org/2000/svg" xmlns:xlink="http://www.w3.org/1999/xlink" x="0px" y="0px"
	 viewBox="0 0 32 32" style="enable-background:new 0 0 32 32;" xml:space="preserve">
<style type="text/css">
	.st0{opacity:0;fill:#444444;}
	.st1{fill:#FFFFFF;}
	.st2{fill:#444444;}
</style>
<g>
	<path class="st0" d="M16,31C7.7,31,1,24.3,1,16C1,7.7,7.7,1,16,1s15,6.7,15,15C31,24.3,24.3,31,16,31z"/>
	<path class="st1" d="M16,2c7.7,0,14,6.3,14,14s-6.3,14-14,14S2,23.7,2,16S8.3,2,16,2 M16,0C7.2,0,0,7.2,0,16s7.2,16,16,16
		s16-7.2,16-16S24.8,0,16,0L16,0z"/>
</g>
<g>
	<path class="st2" d="M8.9,16.9c0-1.1,0.2-2.1,0.5-3c0.3-0.9,0.8-1.7,1.4-2.4c0.6-0.7,1.3-1.2,2.2-1.6c0.9-0.4,1.9-0.6,3.1-0.6
		c1.2,0,2.2,0.2,3.1,0.6c0.9,0.4,1.6,0.9,2.2,1.6c0.6,0.7,1.1,1.5,1.4,2.4c0.3,0.9,0.5,1.9,0.5,3v0.3c0,1.1-0.2,2.1-0.5,3
		s-0.8,1.7-1.4,2.4s-1.3,1.2-2.2,1.6s-1.9,0.6-3.1,0.6s-2.2-0.2-3.1-0.6s-1.6-0.9-2.2-1.6s-1.1-1.5-1.4-2.4s-0.5-1.9-0.5-3V16.9z
		 M13.5,17.2c0,0.6,0,1.1,0.1,1.6c0.1,0.5,0.2,0.9,0.4,1.3s0.5,0.6,0.8,0.8s0.7,0.3,1.2,0.3c0.5,0,0.9-0.1,1.2-0.3s0.6-0.5,0.8-0.8
		s0.3-0.8,0.4-1.3c0.1-0.5,0.1-1,0.1-1.6v-0.3c0-0.5,0-1-0.1-1.5c-0.1-0.5-0.2-0.9-0.4-1.3c-0.2-0.4-0.5-0.6-0.8-0.9
		c-0.3-0.2-0.7-0.3-1.2-0.3c-0.5,0-0.9,0.1-1.2,0.3c-0.3,0.2-0.6,0.5-0.8,0.9c-0.2,0.4-0.3,0.8-0.4,1.3c-0.1,0.5-0.1,1-0.1,1.5V17.2
		z"/>
</g>
<g>
	<path class="st1" d="M8.9,15.9c0-1.1,0.2-2.1,0.5-3c0.3-0.9,0.8-1.7,1.4-2.4c0.6-0.7,1.3-1.2,2.2-1.6c0.9-0.4,1.9-0.6,3.1-0.6
		c1.2,0,2.2,0.2,3.1,0.6c0.9,0.4,1.6,0.9,2.2,1.6c0.6,0.7,1.1,1.5,1.4,2.4c0.3,0.9,0.5,1.9,0.5,3v0.3c0,1.1-0.2,2.1-0.5,3
		s-0.8,1.7-1.4,2.4s-1.3,1.2-2.2,1.6s-1.9,0.6-3.1,0.6s-2.2-0.2-3.1-0.6s-1.6-0.9-2.2-1.6s-1.1-1.5-1.4-2.4s-0.5-1.9-0.5-3V15.9z
		 M13.5,16.2c0,0.6,0,1.1,0.1,1.6c0.1,0.5,0.2,0.9,0.4,1.3s0.5,0.6,0.8,0.8s0.7,0.3,1.2,0.3c0.5,0,0.9-0.1,1.2-0.3s0.6-0.5,0.8-0.8
		s0.3-0.8,0.4-1.3c0.1-0.5,0.1-1,0.1-1.6v-0.3c0-0.5,0-1-0.1-1.5c-0.1-0.5-0.2-0.9-0.4-1.3c-0.2-0.4-0.5-0.6-0.8-0.9
		c-0.3-0.2-0.7-0.3-1.2-0.3c-0.5,0-0.9,0.1-1.2,0.3c-0.3,0.2-0.6,0.5-0.8,0.9c-0.2,0.4-0.3,0.8-0.4,1.3c-0.1,0.5-0.1,1-0.1,1.5V16.2
		z"/>
</g>
</svg>
